<?xml version="1.0" encoding="UTF-8"?>
<svg xmlns="http://www.w3.org/2000/svg" xmlns:xlink="http://www.w3.org/1999/xlink" viewBox="0 0 30 30" width="30px" height="30px">
<g id="surface268480041">
<path style="fill-rule:nonzero;fill:rgb(98.823529%,63.921571%,6.666667%);fill-opacity:1;stroke-width:1;stroke-linecap:butt;stroke-linejoin:round;stroke:rgb(80.000001%,80.000001%,80.000001%);stroke-opacity:1;stroke-miterlimit:10;" d="M 157.67117 35.823419 L 157.67117 50.175678 L 14.328827 50.175678 L 14.328827 35.823419 Z M 157.67117 78.835134 L 157.67117 93.164863 L 14.328827 93.164863 L 14.328827 78.835134 Z M 157.67117 121.824319 L 157.67117 136.176578 L 14.328827 136.176578 L 14.328827 121.824319 Z M 157.67117 121.824319 " transform="matrix(0.173372,0,0,0.173372,0.09,0.09)"/>
<path style=" stroke:none;fill-rule:nonzero;fill:rgb(98.823529%,63.921571%,6.666667%);fill-opacity:1;" d="M 2.574219 6.300781 L 2.574219 8.789062 L 27.425781 8.789062 L 27.425781 6.300781 Z M 2.574219 13.757812 L 2.574219 16.242188 L 27.425781 16.242188 L 27.425781 13.757812 Z M 2.574219 21.210938 L 2.574219 23.699219 L 27.425781 23.699219 L 27.425781 21.210938 Z M 2.574219 21.210938 "/>
</g>
</svg>
